<svg xmlns="http://www.w3.org/2000/svg" height="30" fill="#fff" viewBox="0 40 960 960" width="30"><path d="M697.652 783.493q-29.212 0-44.236-24.199-15.024-24.2-2.307-50.257l43.276-88.493H592.804q-31.415 0-53.584-22.17-22.169-22.169-22.169-53.584V404.26q0-31.48 22.169-53.696 22.169-22.216 53.584-22.216h140.53q31.48 0 53.697 22.216 22.216 22.216 22.216 53.696v200.849q0 8.543-1.74 17.101-1.739 8.559-5.645 16.087l-57.427 116.008q-6.384 13.514-19.006 21.351-12.623 7.837-27.777 7.837Zm-366.137 0q-29.197 0-44.309-24.199-15.111-24.2-2.235-50.257l43.355-88.493h-101.66q-31.415 0-53.584-22.17-22.169-22.169-22.169-53.584V404.26q0-31.48 22.169-53.696 22.169-22.216 53.584-22.216h140.53q31.415 0 53.584 22.216 22.169 22.216 22.169 53.696v200.849q0 8.543-1.659 17.134-1.66 8.59-5.565 16.054l-57.428 116.008q-6.384 13.514-19.006 21.351t-27.776 7.837Z"/></svg>