<svg xmlns="http://www.w3.org/2000/svg" height="40" fill="#fff" viewBox="0 96 960 960" width="40"><path d="M54.145 1005.13V242.537q0-39.348 28.5-68.08 28.501-28.732 67.935-28.732h658.84q39.348 0 68.08 28.732t28.732 68.08v497.869q0 39.192-28.732 67.813-28.732 28.622-68.08 28.622H222.434L54.145 1005.13Zm96.435-219.724 45.101-45H809.42V242.537H150.58v542.869Zm0-542.869v542.869-542.869Zm206.638 431.796L480 600.058l122.782 74.275-32.304-139.55 108.579-93.811-143.487-12.334L480 296.987l-55.57 131.651-143.487 12.334 109.246 93.811-32.971 139.55Z"/></svg>